<?xml version="1.0" encoding="utf-8"?>
<!-- Generator: Adobe Illustrator 16.2.1, SVG Export Plug-In . SVG Version: 6.00 Build 0)  -->
<!DOCTYPE svg PUBLIC "-//W3C//DTD SVG 1.1//EN" "http://www.w3.org/Graphics/SVG/1.1/DTD/svg11.dtd">
<svg version="1.1" id="Layer_1" xmlns="http://www.w3.org/2000/svg" xmlns:xlink="http://www.w3.org/1999/xlink" x="0px" y="0px"
	 width="98px" height="98px" viewBox="0 0 98 98" enable-background="new 0 0 98 98" xml:space="preserve">
<g>
	<g>
		<g>
			<polygon fill="#E8E8E8" points="61.977,5 57,5 57,0 54,0 54,5 49,5 49,8 54,8 54,12.883 57,12.883 57,8 61.977,8 			"/>
		</g>
	</g>
	<g>
		<g>
			<polygon fill="#E8E8E8" points="12.977,5 8,5 8,0 5,0 5,5 0,5 0,8 5,8 5,12.883 8,12.883 8,8 12.977,8 			"/>
		</g>
	</g>
	<g>
		<g>
			<polygon fill="#E8E8E8" points="61.977,54 57,54 57,49 54,49 54,54 49,54 49,57 54,57 54,61.883 57,61.883 57,57 61.977,57 			
				"/>
		</g>
	</g>
	<g>
		<g>
			<polygon fill="#E8E8E8" points="12.977,54 8,54 8,49 5,49 5,54 0,54 0,57 5,57 5,61.883 8,61.883 8,57 12.977,57 			"/>
		</g>
	</g>
	<rect x="55" y="18" fill="#E8E8E8" width="1" height="26"/>
	<rect x="6" y="18" fill="#E8E8E8" width="1" height="26"/>
	<rect x="55" y="67" fill="#E8E8E8" width="1" height="26"/>
	<rect x="6" y="67" fill="#E8E8E8" width="1" height="26"/>
	<rect x="18" y="6" fill="#E8E8E8" width="26" height="1"/>
	<rect x="18" y="55" fill="#E8E8E8" width="26" height="1"/>
	<rect x="67" y="55" fill="#E8E8E8" width="26" height="1"/>
	<rect x="67" y="6" fill="#E8E8E8" width="26" height="1"/>
</g>
</svg>
